<svg width="674" height="354" viewBox="0 0 674 354" fill="none" xmlns="http://www.w3.org/2000/svg">
<path d="M89.3926 329.835H160.611V335.35H89.3926V329.835Z" fill="white" stroke="#262626" stroke-width="0.787818" stroke-miterlimit="10"/>
<path d="M132.565 302.419C132.565 302.419 123.426 310.455 111.609 306.831C99.7916 303.207 63.2368 291.39 63.2368 291.39L74.5814 281.306C74.5814 281.306 113.184 281.306 131.619 279.415L141.073 288.238L132.565 302.419Z" fill="white" stroke="#262626" stroke-width="0.787818" stroke-miterlimit="10"/>
<path d="M85.6109 195.433C85.6109 195.433 75.8419 209.772 90.8105 229.467C105.779 249.163 127.838 275.948 127.838 275.948C127.838 275.948 138.867 293.28 132.565 302.262L176.21 260.822L85.6109 195.433Z" fill="white" stroke="#262626" stroke-width="0.787818" stroke-miterlimit="10"/>
<path d="M245.381 185.349L335.822 287.923C335.822 287.923 364.184 321.012 353.154 339.919C342.125 358.827 317.23 354.415 300.528 347.167C283.826 339.919 85.6111 195.591 85.6111 195.591L248.689 55.9897L326.368 114.446L245.381 185.349Z" fill="white" stroke="#262626" stroke-width="0.787818" stroke-miterlimit="10"/>
<path d="M199.215 147.849L164.236 127.051L113.185 171.957L146.431 197.797L199.215 147.849Z" fill="#FF6B00" stroke="#262626" stroke-width="0.787818" stroke-miterlimit="10"/>
<path d="M220.644 147.849L133.668 88.6053L80.8847 135.087L167.86 197.797L220.644 147.849Z" fill="white" stroke="#262626" stroke-width="0.787818" stroke-miterlimit="10"/>
<path d="M155.254 120.276L136.031 136.505L187.712 178.732L221.588 146.746L155.254 120.276Z" fill="#262626"/>
<path d="M318.963 328.89L171.956 210.56L205.044 177.629L318.963 328.89Z" fill="#262626"/>
<path d="M371.589 278.785L189.76 66.8616L136.819 113.343L318.963 328.89L371.589 278.785Z" fill="white" stroke="#262626" stroke-width="0.787818" stroke-miterlimit="10"/>
<path d="M248.69 118.227L362.923 25.4224C365.287 49.8447 375.686 74.5822 375.686 74.5822L486.926 179.52L448.638 212.765L451.159 214.814C469.436 233.091 451.159 255.15 451.159 255.15L348.585 345.276C361.505 327.472 345.906 302.262 345.906 302.262L245.066 185.192C215.444 149.425 248.69 118.227 248.69 118.227Z" fill="white" stroke="#262626" stroke-width="0.787818" stroke-miterlimit="10"/>
<path d="M435.56 269.016C435.56 269.016 445.014 249.95 429.73 231.831C414.604 213.711 276.736 104.519 276.736 104.519L295.328 86.0844L451.474 214.971C451.474 214.971 466.758 230.097 455.413 249.005L451.474 255.308L435.56 269.016Z" fill="#FF6B00" stroke="#262626" stroke-width="0.787818" stroke-miterlimit="10"/>
<path d="M596.117 227.734C596.117 227.734 620.854 258.459 606.201 285.56C591.547 312.661 554.678 299.583 550.581 296.117C546.327 292.808 340.076 123.585 340.076 123.585C340.076 123.585 325.58 109.246 298.794 106.253C267.912 102.786 248.689 118.385 248.689 118.385L362.923 25.5799C362.923 25.5799 398.059 6.19963 441.232 33.4581C484.404 60.7166 610.77 161.715 610.77 161.715L581.621 203.312C581.621 203.312 588.081 214.499 596.117 227.734Z" fill="white" stroke="#262626" stroke-width="0.787818" stroke-miterlimit="10"/>
<mask id="mask0_197651_58" style="mask-type:alpha" maskUnits="userSpaceOnUse" x="248" y="18" width="364" height="285">
<path d="M596.071 227.362C596.071 227.362 620.808 258.087 606.155 285.188C591.502 312.289 554.632 299.211 550.535 295.744C546.281 292.436 340.03 123.212 340.03 123.212C340.03 123.212 325.534 108.874 298.748 105.88C267.866 102.414 248.643 118.013 248.643 118.013L362.877 25.2077C362.877 25.2077 398.013 5.82737 441.186 33.0859C484.358 60.3444 610.724 161.343 610.724 161.343L581.575 202.939C581.575 202.939 588.035 214.126 596.071 227.362Z" fill="white" stroke="#262626" stroke-width="0.787818" stroke-miterlimit="10"/>
</mask>
<g mask="url(#mask0_197651_58)">
<g clip-path="url(#clip0_197651_58)">
<path d="M454.232 96.581L413.457 100.16L406.314 142.213L364.051 146.687L371.194 104.037L327.443 107.914L334.586 63.7737L378.337 60.7912L420.898 57.8087L428.041 15.1592L468.816 13.0715L476.256 -29.2797L515.543 -30.4727L508.102 10.9838L500.959 52.142L461.673 54.8263L454.232 96.581Z" fill="#666666"/>
<path d="M447.09 137.739L440.244 178.898L399.47 183.968L406.315 142.213L447.09 137.739Z" fill="#262626"/>
<path d="M493.817 93.002L486.674 133.564L447.09 137.739L454.233 96.581L493.817 93.002Z" fill="#262626"/>
<path d="M524.472 129.687L517.329 169.354L479.53 174.126L486.673 133.564L524.472 129.687Z" fill="#262626"/>
<path d="M531.615 89.7213L493.816 93.0021L500.959 52.1421L539.056 49.4578L575.664 46.7736L568.521 86.4406L561.08 125.809L524.472 129.687L531.615 89.7213Z" fill="#FF6B00"/>
<path d="M320.3 151.459L364.051 146.687L357.206 189.336L399.469 183.968L392.326 225.424L350.063 231.389L306.312 237.652L313.455 194.705L267.918 200.371L220.596 206.336L227.441 161.301L274.764 156.231L281.907 111.792L327.443 107.914L320.3 151.459Z" fill="#FF6B00"/>
<path d="M234.286 115.967L241.429 70.3352L288.752 67.0545L281.906 111.792L234.286 115.967Z" fill="#262626"/>
<path d="M254.228 287.46L261.073 244.214L306.312 237.652L299.467 280.302L254.228 287.46Z" fill="#262626"/>
<path d="M440.244 178.898L479.53 174.126L472.387 214.091L465.244 253.758L425.958 260.021L385.48 266.583L392.326 225.424L433.101 219.758L440.244 178.898Z" fill="#262626"/>
<path d="M547.091 203.354L510.186 208.722L517.329 169.354L553.937 164.582L547.091 203.354Z" fill="#262626"/>
<path d="M596.795 121.932L589.652 160.406L553.937 164.582L561.08 125.809L596.795 121.932Z" fill="#262626"/>
<path d="M288.752 67.0544L295.895 22.019L341.729 19.633L334.586 63.7737L288.752 67.0544Z" fill="#262626"/>
</g>
</g>
<path d="M582.409 221.747L555.623 249.005L600.529 292.65C600.529 292.493 624.951 262.713 582.409 221.747Z" fill="#262626"/>
<path d="M568.543 210.875L637.871 128.627C637.871 128.627 664.5 157.146 670.487 174.478C678.523 197.797 667.336 211.82 667.336 211.82L600.529 292.493C600.529 292.493 612.031 283.827 599.268 250.266C587.136 218.28 568.543 210.875 568.543 210.875Z" fill="white" stroke="#262626" stroke-width="0.787818" stroke-miterlimit="10"/>
<path d="M348.269 100.58C348.269 100.58 309.666 78.994 280.517 92.702L341.809 42.5968L388.921 52.2082L348.269 100.58Z" fill="#262626"/>
<path d="M450.055 73.4793L355.674 1L293.279 55.9897L387.817 132.566L450.055 73.4793Z" fill="white" stroke="#262626" stroke-width="0.787818" stroke-miterlimit="10"/>
<path d="M89.3925 281.306L107.67 335.35H20.8524L0.999352 281.306H89.3925Z" fill="white" stroke="#262626" stroke-width="0.787818" stroke-miterlimit="10"/>
<path d="M154.781 281.306C154.781 281.306 158.09 277.524 149.267 260.665C140.443 243.648 116.021 220.959 116.021 220.959C116.021 220.959 106.094 211.032 104.361 209.299L176.21 261.137L154.781 281.306Z" fill="#262626"/>
<circle r="11.625" transform="matrix(-1 0 0 1 53.7959 309.527)" fill="white" stroke="#262626" stroke-width="0.75"/>
<defs>
<clipPath id="clip0_197651_58">
<rect width="376.199" height="317.933" fill="white" transform="matrix(1 0 0 -1 220.596 287.46)"/>
</clipPath>
</defs>
</svg>
