<svg width="375" height="410" viewBox="0 0 375 410" fill="none" xmlns="http://www.w3.org/2000/svg">
<g clip-path="url(#clip0_48_297)">
<path d="M259.907 87.2887L282.189 123.559C282.189 123.559 268.761 130.059 249.764 144.548C233.625 156.911 213.188 180.243 213.188 180.243L175.333 115.065C175.333 115.065 192.241 95.044 217.363 78.191C240.593 62.5294 245.426 63.5231 245.426 63.5231L259.907 87.2887Z" fill="white" stroke="#262626" stroke-width="0.496227" stroke-miterlimit="10"/>
<path d="M183.38 106.39L216.755 165.032C216.755 165.032 227.905 152.719 240.218 142.194C261.465 124.193 277.802 116.553 277.802 116.553L245.295 63.449C245.427 63.5236 215.729 71.0887 183.38 106.39Z" fill="#262626"/>
<path d="M350.403 97.3185C350.403 97.3185 332.618 83.6915 295.765 97.129C258.912 110.566 218.89 146.661 218.89 146.661L181.866 82.4752C181.866 82.4752 232.387 40.1367 266.345 33.502C293.862 28.0969 308.268 35.549 308.268 35.549L350.403 97.3185Z" fill="white" stroke="#262626" stroke-width="0.496227" stroke-miterlimit="10"/>
<path d="M342.065 68.8472L297.663 162.937L173.499 147.351" stroke="#FF6B00" stroke-width="0.496227" stroke-miterlimit="10"/>
<path d="M173.088 198.804L241.02 179.974L250.373 213.717L182.441 232.547L173.088 198.804Z" fill="white" stroke="#FF6B00" stroke-width="0.496227" stroke-miterlimit="10"/>
<path d="M138.682 337.796L130.939 339.942C128.916 339.059 126.817 338.307 124.765 337.32C124.501 337.171 124.266 337.125 124.002 336.976L121.543 328.101L134.964 324.381L138.682 337.796Z" fill="white" stroke="#FF6B00" stroke-width="0.496227" stroke-miterlimit="10"/>
<path d="M155.82 347.489L169.241 343.769L165.523 330.354L152.102 334.075L148.383 320.66L161.805 316.94L158.086 303.525L144.665 307.245L131.244 310.965L127.526 297.551L140.947 293.831L137.228 280.416L123.807 284.136L127.526 297.551L114.104 301.271L100.683 304.991L96.9649 291.576L83.5437 295.297L70.1226 299.017L73.8409 312.431L77.5592 325.846L64.138 329.566L60.4197 316.152L54.4318 317.811L48.1679 227.431C48.1679 227.431 57.0596 214.188 80.95 213.344C116.734 212.093 134.297 231.337 163.911 237.907C182.522 242.082 186.651 233.715 186.651 233.715L198.727 311.373C198.727 311.373 229.875 304.628 247.661 325.477C258.215 337.886 242.351 350.839 225.936 355.389C208.798 360.14 188.529 357.202 156.077 348.418L155.82 347.489V347.489Z" fill="white" stroke="#FF6B00" stroke-width="0.496227" stroke-miterlimit="10"/>
<path d="M155.821 347.491L154.169 347.949C149.588 346.663 144.95 345.17 140.254 343.472L138.681 337.796L152.103 334.076L155.821 347.491Z" fill="white" stroke="#FF6B00" stroke-width="0.496227" stroke-miterlimit="10"/>
<path d="M121.543 328.1L108.431 331.734C108.328 331.763 108.196 331.688 108.093 331.717L104.403 318.405L117.824 314.685L121.543 328.1Z" fill="white" stroke="#FF6B00" stroke-width="0.496227" stroke-miterlimit="10"/>
<path d="M93.1562 329.967C87.9321 329.971 83.3497 330.685 79.1915 331.727L77.5612 325.845L90.9824 322.125L93.1562 329.967Z" fill="white" stroke="#FF6B00" stroke-width="0.496227" stroke-miterlimit="10"/>
<path d="M57.5349 345.841L56.5025 346.127L55.4685 331.969L64.1406 329.565L66.3144 337.407C61.8912 340.3 58.907 343.572 57.5349 345.841Z" fill="white" stroke="#FF6B00" stroke-width="0.496227" stroke-miterlimit="10"/>
<path d="M87.2625 308.712L100.684 304.992L104.402 318.406L90.9808 322.126L87.2625 308.712Z" fill="white" stroke="#FF6B00" stroke-width="0.496227" stroke-miterlimit="10"/>
<path d="M175.012 239.05L187.369 332.964C187.369 332.964 209.865 317.061 239.95 321.723L223.192 231.585C223.192 231.585 208.904 220.545 186.783 233.788C186.783 233.788 182.22 239.386 175.012 239.05Z" fill="#262626"/>
<path d="M186.786 233.789L183.934 211.467C183.934 211.467 217.255 205.342 233.602 225.812L250.643 330.206C250.643 330.206 248.887 323.47 228.746 317.386C216.62 313.746 199.981 318.692 199.981 318.692L186.786 233.789Z" fill="white" stroke="#FF6B00" stroke-width="0.496227" stroke-miterlimit="10"/>
<path d="M104.731 215.306C104.731 215.306 91.7474 208.571 75.3086 214.239C58.8698 219.906 19.1969 256.46 19.1969 256.46L17.9503 327.365C17.9503 327.365 66.3714 286.276 82.3212 282.855C97.5198 279.531 110.475 286.162 110.475 286.162L104.731 215.306Z" fill="#262626"/>
<path d="M92.07 197.704C92.07 197.704 79.8122 193.99 62.6471 196.637C47.1911 199.032 6.53539 238.858 6.53539 238.858L5.28884 309.764C5.28884 309.764 54.1961 270.428 69.6597 265.253C85.1234 260.078 97.5291 265.528 97.5291 265.528L92.07 197.704Z" fill="white" stroke="#FF6B00" stroke-width="0.496227" stroke-miterlimit="10"/>
<path d="M51.3184 201.888L51.5492 233.604L20.6522 258.502L20.8294 225.451L43.3899 206.975L51.3184 201.888Z" fill="#262626"/>
<path d="M86.8534 337.713L121.542 328.098L127.634 350.077L92.9457 359.692L86.8534 337.713Z" fill="white" stroke="#FF6B00" stroke-width="0.496227" stroke-miterlimit="10"/>
<path d="M118.818 341.249L115.012 344.734L114.768 343.853L117.69 341.295L117.674 341.24L113.853 340.551L113.609 339.67L118.665 340.699L118.818 341.249ZM108.817 338.746L109.56 338.54L114.169 346.346L113.426 346.552L108.817 338.746ZM105.434 347.626L101.497 345.398L103.725 341.461L104.401 341.844L102.823 344.623L108.472 343.057L108.682 343.814L103.033 345.38L105.818 346.957L105.434 347.626ZM95.304 347.767L95.1515 347.216L98.9571 343.731L99.2012 344.612L96.2797 347.17L96.295 347.225L100.117 347.915L100.361 348.795L95.304 347.767Z" fill="black"/>
<path d="M43.3418 199.989L43.4694 231.733L12.5724 256.632L12.7594 226.023L43.3418 199.989Z" fill="white" stroke="#262626" stroke-width="0.496227" stroke-miterlimit="10"/>
<path d="M87.6987 173.915L84.8918 144.135L115.817 119.34L118.281 147.881L87.6987 173.915Z" fill="white" stroke="#262626" stroke-width="0.496227" stroke-miterlimit="10"/>
<path d="M101.591 151.842C99.6524 152.379 97.6455 151.244 97.1084 149.307C96.5713 147.369 97.7075 145.363 99.6461 144.825C101.585 144.288 103.592 145.423 104.129 147.361C104.666 149.298 103.53 151.305 101.591 151.842Z" fill="white" stroke="#262626" stroke-width="0.496227" stroke-miterlimit="10"/>
<path d="M28.7207 237.489L28.7188 248.712L17.8173 257.512L17.9336 246.702L28.7207 237.489Z" fill="white" stroke="#262626" stroke-width="0.496227" stroke-miterlimit="10"/>
<path d="M68.2598 254.197L68.3508 272.173L51.444 282.971L51.5246 265.614L68.2598 254.197Z" fill="white" stroke="#262626" stroke-width="0.496227" stroke-miterlimit="10"/>
<path d="M125.025 266.464C117.556 268.534 109.823 264.16 107.754 256.695C105.684 249.229 110.062 241.499 117.531 239.428C125.001 237.358 132.733 241.732 134.803 249.197C136.872 256.663 132.494 264.393 125.025 266.464Z" fill="#262626"/>
<path d="M121.466 260.449C113.997 262.52 106.265 258.146 104.195 250.68C102.126 243.214 106.503 235.484 113.973 233.414C121.442 231.343 129.175 235.717 131.244 243.183C133.313 250.648 128.936 258.379 121.466 260.449Z" fill="white" stroke="#262626" stroke-width="0.496227" stroke-miterlimit="10"/>
<path d="M117.721 246.932L171.609 151.768" stroke="#FF6B00" stroke-width="0.496227" stroke-miterlimit="10"/>
<path d="M177.247 160.871C169.777 162.942 162.045 158.568 159.975 151.102C157.906 143.637 162.284 135.906 169.753 133.836C177.222 131.765 184.955 136.139 187.024 143.605C189.094 151.07 184.716 158.801 177.247 160.871Z" fill="white" stroke="#FF6B00" stroke-width="0.496227" stroke-miterlimit="10"/>
<path d="M168.335 134.34L170.615 128.93L183.77 145.507L173.802 164.493L171.356 161.282" stroke="#FF6B00" stroke-width="0.496227" stroke-miterlimit="10"/>
<path d="M237.764 194.627L232.899 199.082L232.587 197.957L236.321 194.686L236.302 194.616L231.416 193.734L231.104 192.609L237.569 193.924L237.764 194.627ZM226.115 201.266L231.744 199.706L232.012 200.673L226.383 202.234L226.115 201.266ZM220.515 202.818L226.144 201.258L226.413 202.225L220.783 203.786L220.515 202.818ZM214.915 204.37L220.545 202.81L220.813 203.777L215.183 205.338L214.915 204.37ZM208.179 196.084L209.129 195.82L215.021 205.8L214.071 206.063L208.179 196.084ZM204.901 207.146L210.53 205.586L210.798 206.553L205.169 208.114L204.901 207.146ZM197.121 205.893L196.926 205.189L201.791 200.734L202.103 201.859L198.369 205.13L198.388 205.2L203.274 206.082L203.586 207.207L197.121 205.893Z" fill="black"/>
<path d="M298.562 166.578C296.224 167.226 293.804 165.857 293.156 163.521C292.509 161.184 293.879 158.765 296.216 158.117C298.554 157.469 300.974 158.838 301.622 161.174C302.27 163.511 300.9 165.93 298.562 166.578Z" fill="white" stroke="#F55800" stroke-width="0.496227" stroke-miterlimit="10"/>
<path d="M346.042 83.1926C336.748 85.7688 327.127 80.3266 324.552 71.0372C321.977 61.7479 327.424 52.129 336.718 49.5529C346.012 46.9768 355.633 52.4189 358.208 61.7083C360.783 70.9977 355.336 80.6165 346.042 83.1926Z" fill="white" stroke="#F55800" stroke-width="0.496227" stroke-miterlimit="10"/>
<path d="M118.709 248.876C117.34 249.256 115.924 248.454 115.544 247.087C115.165 245.719 115.967 244.303 117.336 243.923C118.704 243.544 120.121 244.345 120.5 245.713C120.879 247.081 120.077 248.497 118.709 248.876Z" fill="white" stroke="#FF6B00" stroke-width="0.496227" stroke-miterlimit="10"/>
<path d="M326.992 56.5802C326.992 56.5802 329.29 67.2772 339.31 72.9447C349.33 78.6123 356.42 75.3136 356.42 75.3136" fill="white"/>
<path d="M326.992 56.5802C326.992 56.5802 329.29 67.2772 339.31 72.9447C349.33 78.6123 356.42 75.3136 356.42 75.3136" stroke="#F55800" stroke-width="0.496227" stroke-miterlimit="10"/>
<path d="M217.455 105.392L231.256 100.234L229.597 85.0258L243.828 79.4144L245.544 94.8287L260.348 89.2806L262.104 105.239L247.213 110.478L232.736 115.602L234.348 131.045L220.405 135.688L221.885 151.056L208.372 155.246L206.977 140.187L205.508 125.26L218.878 120.554L217.455 105.392Z" fill="#666666"/>
<path d="M215.984 90.467L214.412 75.5687L228.069 69.894L229.596 85.0274L215.984 90.467Z" fill="#262626"/>
<path d="M204.064 110.437L202.652 95.716L215.982 90.4653L217.452 105.392L204.064 110.437Z" fill="#262626"/>
<path d="M189.914 100.694L188.587 86.2829L201.241 80.9976L202.653 95.7181L189.914 100.694Z" fill="#262626"/>
<path d="M191.269 115.208L204.066 110.439L205.507 125.263L192.549 129.854L180.108 134.303L178.782 119.892L177.484 105.584L189.914 100.694L191.269 115.208Z" fill="#FF6B00"/>
<path d="M258.648 73.5281L243.826 79.4143L242.213 63.9715L228.068 69.8924L226.57 54.8623L240.658 48.735L255.234 42.3614L256.875 57.9075L272.127 51.5686L287.97 44.9548L289.914 61.1945L273.986 67.4988L275.77 83.5608L260.346 89.2805L258.648 73.5281Z" fill="#F55800"/>
<path d="M291.887 77.5369L293.785 94.0116L277.685 99.6967L275.769 83.5601L291.887 77.5369Z" fill="#262626"/>
<path d="M268.524 20.1211L270.297 35.7417L255.234 42.3616L253.518 26.9473L268.524 20.1211Z" fill="#262626"/>
<path d="M214.409 75.5697L201.239 80.998L199.884 66.4839L198.558 52.0729L211.481 46.1572L224.996 39.9666L226.569 54.8649L212.968 60.7459L214.409 75.5697Z" fill="#262626"/>
<path d="M175.001 77.3795L187.288 71.9736L188.586 86.2814L176.242 91.4809L175.001 77.3795Z" fill="#262626"/>
<path d="M165.57 110.327L164.358 96.3292L176.243 91.4792L177.484 105.581L165.57 110.327Z" fill="#262626"/>
<path d="M277.686 99.6965L279.527 115.965L263.857 121.197L262.101 105.239L277.686 99.6965Z" fill="#262626"/>
<path d="M100.621 148.33L328.967 215.71" stroke="#FF6B00" stroke-width="0.496227" stroke-miterlimit="10"/>
<path d="M336.678 191.791L336.834 223.638L305.937 248.537L306.124 217.928L336.678 191.791Z" fill="white" stroke="#666666" stroke-width="0.496227" stroke-miterlimit="10"/>
</g>
<defs>
<clipPath id="clip0_48_297">
<rect width="406.889" height="312.031" fill="white" transform="matrix(-0.963665 0.267112 0.267112 0.963665 341.104 0)"/>
</clipPath>
</defs>
</svg>
